<?xml version="1.0" encoding="UTF-8" standalone="no"?><!DOCTYPE svg PUBLIC "-//W3C//DTD SVG 1.1//EN" "http://www.w3.org/Graphics/SVG/1.1/DTD/svg11.dtd"><svg width="100%" height="100%" viewBox="0 0 110 110" version="1.1" xmlns="http://www.w3.org/2000/svg" xmlns:xlink="http://www.w3.org/1999/xlink" xml:space="preserve" xmlns:serif="http://www.serif.com/" style="fill-rule:evenodd;clip-rule:evenodd;stroke-linejoin:round;stroke-miterlimit:2;"><g><rect x="39.342" y="27.098" width="30.673" height="46.012"/><rect x="50.844" y="7.926" width="7.669" height="88.191"/><rect x="47.009" y="11.76" width="15.338" height="88.19"/><rect x="43.171" y="19.422" width="23.013" height="57.528"/></g><g><rect x="24.004" y="50.103" width="11.505" height="26.843"/><rect x="16.332" y="57.763" width="11.508" height="23.017"/><rect x="8.664" y="65.433" width="11.508" height="19.193"/><rect x="0.997" y="73.106" width="11.508" height="15.351"/><rect x="4.83" y="69.272" width="4.906" height="6.121"/><rect x="12.497" y="61.602" width="4.906" height="6.121"/><rect x="20.17" y="53.937" width="4.906" height="6.121"/><rect x="27.829" y="46.251" width="7.68" height="6.121"/><rect x="31.672" y="42.435" width="3.836" height="6.121"/><rect x="0.999" y="86.164" width="3.835" height="6.121"/></g><g><rect x="73.848" y="50.103" width="11.505" height="26.843"/><rect x="81.517" y="57.763" width="11.508" height="23.017"/><rect x="89.185" y="65.433" width="11.508" height="19.193"/><rect x="96.852" y="73.106" width="11.508" height="15.351"/><rect x="99.621" y="69.271" width="4.906" height="6.121"/><rect x="91.953" y="61.601" width="4.906" height="6.121"/><rect x="84.281" y="53.937" width="4.906" height="6.121"/><rect x="73.848" y="46.251" width="7.68" height="6.121"/><rect x="73.849" y="42.434" width="3.836" height="6.121"/><rect x="104.523" y="86.164" width="3.835" height="6.121"/></g></svg>